Silent, so no subtitle required. Includes OST (320 Kb/s).

Director:
Ettore Scola

Writers:
Jean-Claude Penchenat (idea), Ruggero Maccari, Jean-Claude Penchenat, Furio Scarpelli, Ettore Scola (screenplay)

Stars:
Étienne Guichard, Régis Bouquet and Francesco De Rosa

The 50 year story of a ballroom in France, from the 1920s. The people who go there is always the same, even the musicians. You can see all kind of people dancing all the fashion dances (depending on the age). From IMDb.

Format                           : AVI
Format/Info                      : Audio Video Interleave
File size                        : 1.36 GiB
Duration                         : 1h 47mn
Overall bit rate                 : 1 820 Kbps
Writing application              : VirtualDubMod 1.5.4.1 (build 2178/release)
Writing library                  : VirtualDubMod build 2178/release

Video
ID                               : 0
Format                           : MPEG-4 Visual
Format profile                   : Advanced Simple@L5
Format settings, BVOP            : Yes
Format settings, QPel            : No
Format settings, GMC             : No warppoints
Format settings, Matrix          : Custom
Codec ID                         : XVID
Codec ID/Hint                    : XviD
Duration                         : 1h 47mn
Bit rate                         : 1 429 Kbps
Width                            : 656 pixels
Height                           : 400 pixels
Display aspect ratio             : 1.640
Frame rate                       : 25.000 fps
Color space                      : YUV
Chroma subsampling               : 4:2:0
Bit depth                        : 8 bits
Scan type                        : Progressive
Bits/(Pixel*Frame)               : 0.218
Stream size                      : 1.07 GiB (79%)
Writing library                  : XviD 1.0.3 (UTC 2004-12-20)

Audio
ID                               : 1
Format                           : AC-3
Format/Info                      : Audio Coding 3
Mode extension                   : CM (complete main)
Codec ID                         : 2000
Duration                         : 1h 47mn
Bit rate mode                    : Constant
Bit rate                         : 384 Kbps
Channel(s)                       : 6 channels
Channel positions                : Front: L C R, Side: L R, LFE
Sampling rate                    : 48.0 KHz
Bit depth                        : 16 bits
Stream size                      : 294 MiB (21%)
Alignment                        : Aligned on interleaves
Interleave, duration             : 96 ms (2.40 video frames)
Interleave, preload duration     : 96 ms

 